<?xml version="1.0" encoding="utf-8"?>
<!-- Generator: Adobe Illustrator 18.0.0, SVG Export Plug-In . SVG Version: 6.00 Build 0)  -->
<!DOCTYPE svg PUBLIC "-//W3C//DTD SVG 1.1//EN" "http://www.w3.org/Graphics/SVG/1.1/DTD/svg11.dtd">
<svg version="1.1" id="Ebene_1" xmlns="http://www.w3.org/2000/svg" xmlns:xlink="http://www.w3.org/1999/xlink" x="0px" y="0px"
	 viewBox="0 0 64 64" enable-background="new 0 0 64 64" xml:space="preserve">
<g>
	<path fill="#26AAD5" d="M31.9,28.7c-0.3,0-0.5,0-0.8-0.1l-20.1-7.4L0,25.3L31.9,37L64,25.3l-11.1-4.1l-20.2,7.4
		C32.4,28.7,32.2,28.7,31.9,28.7z"/>
	<polygon fill="#26AAD5" points="64,11.8 32.1,0 0,11.8 31.9,23.5 	"/>
	<path fill="#26AAD5" d="M64,38.7l-11.1-4.1l-20.2,7.4c-0.2,0.1-0.5,0.1-0.8,0.1c-0.3,0-0.5,0-0.8-0.1l-20.1-7.4L0,38.7l31.9,11.8
		L64,38.7z"/>
	<path fill="#26AAD5" d="M64,52.2l-11.1-4.1l-20.2,7.4c-0.2,0.1-0.5,0.1-0.8,0.1c-0.3,0-0.5,0-0.8-0.1l-20.1-7.4L0,52.2L31.9,64
		L64,52.2z"/>
</g>
</svg>
