<?xml version="1.0" encoding="utf-8"?>
<!-- Generator: Adobe Illustrator 18.0.0, SVG Export Plug-In . SVG Version: 6.00 Build 0)  -->
<!DOCTYPE svg PUBLIC "-//W3C//DTD SVG 1.1//EN" "http://www.w3.org/Graphics/SVG/1.1/DTD/svg11.dtd">
<svg version="1.1" id="Ebene_1" xmlns="http://www.w3.org/2000/svg" xmlns:xlink="http://www.w3.org/1999/xlink" x="0px" y="0px"
	 viewBox="0 0 64 64" enable-background="new 0 0 64 64" xml:space="preserve">
<g>
	<path d="M40.2,46.8c0,0,0.1,0,0.1,0c0.2,0,0.3-0.1,0.5-0.2l22.5-15.4c0.5-0.3,0.7-1.1,0.6-1.8c-0.1-0.8-0.5-1.3-1.1-1.3
		c-0.2,0-18.4-0.6-26.5-24.9c-0.8-2.3-2.6-3.7-4.3-3.1L13.3,6.9c-0.9,0.3-1.6,1.2-2,2.4C11,10.5,11,11.8,11.5,13
		C14.7,22.1,24.1,43.7,40.2,46.8L40.2,46.8z M13.3,10.7c0.1-0.2,0.3-0.4,0.5-0.5l18.8-6.8c0.1,0,0.2,0,0.3,0c0.6,0,1.2,0.6,1.5,1.4
		c6.3,18.8,18.2,24.4,24.4,26L40.2,43.5c-15-3.2-23.7-23.4-26.8-32C13.3,11.3,13.2,11,13.3,10.7L13.3,10.7z M13.3,10.7"/>
	<rect y="60.5" width="39.8" height="3.5"/>
	<path d="M62.9,48.7v-3.5L40.4,60.5V64L62.9,48.7z M62.9,48.7"/>
	<path d="M62.9,44H57L40.2,56.1l-0.7,0c-10.2,0-18.4-2.7-24.5-5.9L0,59.3h39.8L62.9,44z M62.9,44"/>
	<path d="M4.3,39.1C8.7,43.3,20.9,52.9,40,52.8l22.3-16c0,0-1.2,0-3.2-0.1l-19,13l-0.3-0.1c-10.9-2.1-18.6-12.5-23.5-21.8l-11.7,8
		C3.4,36.7,3.3,38.2,4.3,39.1L4.3,39.1z M4.3,39.1"/>
</g>
</svg>
